# xmcd CD database file
# Generated: Wed Nov 12 11:51:21 2003 by KSCD
# 
# Track frame offsets:
#       150
#       21337
#       38590
#       70262
#       86657
#       108467
#       126920
#       151212
#       168662
#       187475
#       212675
#
# Disc length: 3184 seconds
#
# Revision: 3
# Processed by: cddbd v1.4PL0 Copyright (c) Steve Scherf et al.
# Submitted via: Kscd 1.3.3
#
DISCID=9c0c6e0b
DTITLE=Solomon Burke - The Definition of Soul
DYEAR=1900
DGENRE=
TTITLE0=Why Can't We Come Together
TTITLE1=Your Time to Cry
TTITLE2=Sweet Spirit
TTITLE3=You're the One
TTITLE4=Just For You
TTITLE5=Oooooo You
TTITLE6=Everybody's Got a Game
TTITLE7=Today is Your Birthday
TTITLE8=Use Me, but Leave My Mind Alone
TTITLE9=It's So Hard
TTITLE10=Nobody but You
EXTD=
EXTT0=
EXTT1=
EXTT2=
EXTT3=
EXTT4=
EXTT5=
EXTT6=
EXTT7=
EXTT8=
EXTT9=
EXTT10=
PLAYORDER=
